<svg width="100" height="40" viewBox="0 0 100 40" fill="none" xmlns="http://www.w3.org/2000/svg">
<path d="M27.0068 16C26.7428 16 26.5208 15.91 26.3408 15.73C26.1608 15.55 26.0708 15.328 26.0708 15.064V3.67H22.1828C21.9308 3.67 21.7208 3.592 21.5528 3.436C21.3968 3.268 21.3188 3.058 21.3188 2.806C21.3188 2.554 21.3968 2.35 21.5528 2.194C21.7208 2.026 21.9308 1.942 22.1828 1.942H31.8128C32.0648 1.942 32.2688 2.026 32.4248 2.194C32.5928 2.35 32.6768 2.554 32.6768 2.806C32.6768 3.058 32.5928 3.268 32.4248 3.436C32.2688 3.592 32.0648 3.67 31.8128 3.67H27.9428V15.064C27.9428 15.328 27.8528 15.55 27.6728 15.73C27.4928 15.91 27.2708 16 27.0068 16ZM40.3507 16.18C39.2947 16.18 38.3287 16.006 37.4527 15.658C36.5767 15.298 35.8207 14.8 35.1847 14.164C34.5607 13.516 34.0747 12.754 33.7267 11.878C33.3787 10.99 33.2047 10.018 33.2047 8.962C33.2047 7.906 33.3787 6.94 33.7267 6.064C34.0747 5.188 34.5607 4.432 35.1847 3.796C35.8207 3.148 36.5767 2.65 37.4527 2.302C38.3287 1.942 39.2947 1.762 40.3507 1.762C41.4067 1.762 42.3667 1.942 43.2307 2.302C44.1067 2.65 44.8627 3.148 45.4987 3.796C46.1347 4.432 46.6267 5.188 46.9747 6.064C47.3227 6.94 47.4967 7.906 47.4967 8.962C47.4967 10.018 47.3227 10.99 46.9747 11.878C46.6267 12.754 46.1347 13.516 45.4987 14.164C44.8627 14.8 44.1067 15.298 43.2307 15.658C42.3667 16.006 41.4067 16.18 40.3507 16.18ZM40.3507 14.488C41.3947 14.488 42.3187 14.248 43.1227 13.768C43.9267 13.276 44.5567 12.616 45.0127 11.788C45.4687 10.948 45.6967 10.006 45.6967 8.962C45.6967 7.918 45.4687 6.982 45.0127 6.154C44.5567 5.314 43.9267 4.654 43.1227 4.174C42.3187 3.694 41.3947 3.454 40.3507 3.454C39.3067 3.454 38.3827 3.694 37.5787 4.174C36.7747 4.654 36.1447 5.314 35.6887 6.154C35.2327 6.982 35.0047 7.918 35.0047 8.962C35.0047 10.006 35.2327 10.948 35.6887 11.788C36.1447 12.616 36.7747 13.276 37.5787 13.768C38.3827 14.248 39.3067 14.488 40.3507 14.488ZM51.3649 16C51.1009 16 50.8789 15.91 50.6989 15.73C50.5189 15.55 50.4289 15.328 50.4289 15.064V2.878C50.4289 2.602 50.5189 2.38 50.6989 2.212C50.8789 2.032 51.1009 1.942 51.3649 1.942H54.6229C55.6549 1.942 56.5909 2.116 57.4309 2.464C58.2829 2.8 59.0209 3.286 59.6449 3.922C60.2689 4.546 60.7489 5.284 61.0849 6.136C61.4209 6.988 61.5889 7.93 61.5889 8.962C61.5889 9.994 61.4209 10.942 61.0849 11.806C60.7489 12.658 60.2689 13.402 59.6449 14.038C59.0209 14.662 58.2829 15.148 57.4309 15.496C56.5909 15.832 55.6549 16 54.6229 16H51.3649ZM52.3009 14.344H54.6229C55.6309 14.344 56.5189 14.116 57.2869 13.66C58.0669 13.192 58.6789 12.556 59.1229 11.752C59.5669 10.936 59.7889 10.006 59.7889 8.962C59.7889 7.906 59.5669 6.976 59.1229 6.172C58.6789 5.368 58.0669 4.738 57.2869 4.282C56.5189 3.826 55.6309 3.598 54.6229 3.598H52.3009V14.344ZM70.673 16.18C69.617 16.18 68.651 16.006 67.775 15.658C66.899 15.298 66.143 14.8 65.507 14.164C64.883 13.516 64.397 12.754 64.049 11.878C63.701 10.99 63.527 10.018 63.527 8.962C63.527 7.906 63.701 6.94 64.049 6.064C64.397 5.188 64.883 4.432 65.507 3.796C66.143 3.148 66.899 2.65 67.775 2.302C68.651 1.942 69.617 1.762 70.673 1.762C71.729 1.762 72.689 1.942 73.553 2.302C74.429 2.65 75.185 3.148 75.821 3.796C76.457 4.432 76.949 5.188 77.297 6.064C77.645 6.94 77.819 7.906 77.819 8.962C77.819 10.018 77.645 10.99 77.297 11.878C76.949 12.754 76.457 13.516 75.821 14.164C75.185 14.8 74.429 15.298 73.553 15.658C72.689 16.006 71.729 16.18 70.673 16.18ZM70.673 14.488C71.717 14.488 72.641 14.248 73.445 13.768C74.249 13.276 74.879 12.616 75.335 11.788C75.791 10.948 76.019 10.006 76.019 8.962C76.019 7.918 75.791 6.982 75.335 6.154C74.879 5.314 74.249 4.654 73.445 4.174C72.641 3.694 71.717 3.454 70.673 3.454C69.629 3.454 68.705 3.694 67.901 4.174C67.097 4.654 66.467 5.314 66.011 6.154C65.555 6.982 65.327 7.918 65.327 8.962C65.327 10.006 65.555 10.948 66.011 11.788C66.467 12.616 67.097 13.276 67.901 13.768C68.705 14.248 69.629 14.488 70.673 14.488ZM24.9098 36C24.6458 36 24.4238 35.91 24.2438 35.73C24.0638 35.55 23.9738 35.328 23.9738 35.064V22.878C23.9738 22.602 24.0638 22.38 24.2438 22.212C24.4238 22.032 24.6458 21.942 24.9098 21.942H28.1678C29.1998 21.942 30.1358 22.116 30.9758 22.464C31.8278 22.8 32.5658 23.286 33.1898 23.922C33.8138 24.546 34.2938 25.284 34.6298 26.136C34.9658 26.988 35.1338 27.93 35.1338 28.962C35.1338 29.994 34.9658 30.942 34.6298 31.806C34.2938 32.658 33.8138 33.402 33.1898 34.038C32.5658 34.662 31.8278 35.148 30.9758 35.496C30.1358 35.832 29.1998 36 28.1678 36H24.9098ZM25.8458 34.344H28.1678C29.1758 34.344 30.0638 34.116 30.8318 33.66C31.6118 33.192 32.2238 32.556 32.6678 31.752C33.1118 30.936 33.3338 30.006 33.3338 28.962C33.3338 27.906 33.1118 26.976 32.6678 26.172C32.2238 25.368 31.6118 24.738 30.8318 24.282C30.0638 23.826 29.1758 23.598 28.1678 23.598H25.8458V34.344ZM39.0075 36C38.7435 36 38.5215 35.91 38.3415 35.73C38.1615 35.55 38.0715 35.328 38.0715 35.064V22.878C38.0715 22.602 38.1615 22.38 38.3415 22.212C38.5215 22.032 38.7435 21.942 39.0075 21.942C39.2835 21.942 39.5055 22.032 39.6735 22.212C39.8535 22.38 39.9435 22.602 39.9435 22.878V35.064C39.9435 35.328 39.8535 35.55 39.6735 35.73C39.5055 35.91 39.2835 36 39.0075 36ZM42.9803 36C42.6443 36 42.3863 35.856 42.2063 35.568C42.0263 35.28 42.0083 34.974 42.1523 34.65L47.2103 22.572C47.3903 22.152 47.6843 21.942 48.0923 21.942C48.5243 21.942 48.8183 22.152 48.9743 22.572L54.0503 34.686C54.1823 35.022 54.1583 35.328 53.9783 35.604C53.8103 35.868 53.5523 36 53.2043 36C53.0243 36 52.8503 35.952 52.6823 35.856C52.5263 35.748 52.4123 35.604 52.3403 35.424L51.3323 32.904H44.8703L43.8443 35.424C43.7603 35.616 43.6343 35.76 43.4663 35.856C43.3103 35.952 43.1483 36 42.9803 36ZM45.5003 31.356H50.7023L48.1283 24.948L45.5003 31.356ZM57.1305 36C56.8665 36 56.6445 35.91 56.4645 35.73C56.2845 35.55 56.1945 35.328 56.1945 35.064V22.878C56.1945 22.602 56.2845 22.38 56.4645 22.212C56.6445 22.032 56.8665 21.942 57.1305 21.942H60.3705C61.2705 21.942 62.0685 22.134 62.7645 22.518C63.4605 22.89 64.0005 23.406 64.3845 24.066C64.7805 24.726 64.9785 25.494 64.9785 26.37C64.9785 27.234 64.7625 27.996 64.3305 28.656C63.8985 29.304 63.3105 29.796 62.5665 30.132L65.3205 34.56C65.5365 34.908 65.5665 35.238 65.4105 35.55C65.2545 35.85 64.9845 36 64.6005 36C64.2525 36 63.9825 35.85 63.7905 35.55L60.6945 30.582C60.5865 30.582 60.4785 30.582 60.3705 30.582H58.0665V35.064C58.0665 35.328 57.9765 35.55 57.7965 35.73C57.6285 35.91 57.4065 36 57.1305 36ZM58.0665 28.854H60.3705C61.1865 28.854 61.8585 28.626 62.3865 28.17C62.9145 27.702 63.1785 27.102 63.1785 26.37C63.1785 25.578 62.9145 24.93 62.3865 24.426C61.8585 23.922 61.1865 23.67 60.3705 23.67H58.0665V28.854ZM71.7796 36C71.5276 36 71.3116 35.91 71.1316 35.73C70.9516 35.55 70.8616 35.328 70.8616 35.064V30.87L66.0556 23.4C65.8996 23.148 65.8396 22.914 65.8756 22.698C65.9116 22.47 66.0136 22.29 66.1816 22.158C66.3616 22.014 66.5656 21.942 66.7936 21.942C66.9976 21.942 67.1596 21.99 67.2796 22.086C67.3996 22.17 67.5136 22.296 67.6216 22.464L71.8336 29.142L76.1176 22.392C76.3096 22.092 76.5856 21.942 76.9456 21.942C77.1616 21.942 77.3416 22.02 77.4856 22.176C77.6296 22.32 77.7136 22.506 77.7376 22.734C77.7616 22.95 77.7016 23.172 77.5576 23.4L72.7156 30.87V35.064C72.7156 35.328 72.6256 35.55 72.4456 35.73C72.2656 35.91 72.0436 36 71.7796 36Z" fill="#E7D2CC"/>
<path d="M21.0488 18.25H78.953V19.15H21.0488V18.25ZM22.1738 38.25H77.8276V39.15H22.1738V38.25Z" fill="#E7D2CC"/>
</svg>
